# xmcd CD database file
#
# Track frame offsets:
#	150
#	17514
#	34398
#	50073
#	68425
#	89911
#	114891
#	132028
#	148264
#	164556
#	180153
#
# Disc length: 2550 seconds
#
# Revision: 0
# Processed by: cddbd v1.4PL0 Copyright (c) Steve Scherf et al.
# Submitted via: CDex 1.40Beta9
#
DISCID=9409f40b
DTITLE=George Stancell - Gorgeous George
DYEAR=1999
DGENRE=Blues
TTITLE0=Stop Your Cryin'
TTITLE1=Except Me
TTITLE2=Gonnda Keep On
TTITLE3=Gorgeous George
TTITLE4=I Wanna
TTITLE5=Leave A Light On Baby
TTITLE6=A Bluesman
TTITLE7=Mississippi Woman
TTITLE8=Singing The Blues
TTITLE9=Standin' In The Rain
TTITLE10=I Don't Know What To Do
EXTD=YEAR: 1999 ID3G: 0
EXTT0=
EXTT1=
EXTT2=
EXTT3=
EXTT4=
EXTT5=
EXTT6=
EXTT7=
EXTT8=
EXTT9=
EXTT10=
PLAYORDER=
